<svg width="24" height="24" viewBox="0 0 24 24" fill="none" xmlns="http://www.w3.org/2000/svg">
<g clip-path="url(#clip0_7_397)">
<path d="M20.9296 6.06224L14.8928 1.8281C13.2523 0.674315 10.7224 0.732542 9.14 1.96528L3.87324 6.07212C2.81831 6.89328 2 8.56523 2 9.89469V17.1401C2 18.4271 2.51021 19.6614 3.41859 20.5721C4.32696 21.4827 5.55924 21.9952 6.84479 21.9971H18.1552C19.4392 21.9958 20.6703 21.4848 21.5785 20.5761C22.4867 19.6675 22.9979 18.4354 23 17.15V10.0319C23 8.61359 22.092 6.87354 20.9296 6.06224ZM17.6277 14.4318C17.6275 15.4042 17.2415 16.3367 16.5547 17.0243C15.8679 17.7118 14.9364 18.0982 13.9651 18.0985H11.0349C10.0636 18.0982 9.13214 17.7118 8.44532 17.0243C7.75849 16.3367 7.37252 15.4042 7.37225 14.4318V11.4985C7.37252 10.5262 7.75849 9.59369 8.44532 8.90612C9.13214 8.21855 10.0636 7.83216 11.0349 7.8319H13.9651C14.9364 7.83216 15.8679 8.21855 16.5547 8.90612C17.2415 9.59369 17.6275 10.5262 17.6277 11.4985V14.4318Z" fill="#00CCCB"/>
<path d="M13.9651 7.83191H11.035C9.01215 7.83191 7.37231 9.47352 7.37231 11.4985V14.4319C7.37231 16.4569 9.01215 18.0985 11.035 18.0985H13.9651C15.988 18.0985 17.6278 16.4569 17.6278 14.4319V11.4985C17.6278 9.47352 15.988 7.83191 13.9651 7.83191Z" fill="white"/>
</g>
<defs>
<clipPath id="clip0_7_397">
<rect width="21" height="21" fill="white" transform="translate(2 1)"/>
</clipPath>
</defs>
</svg>
